<?xml version="1.0" encoding="UTF-8" standalone="no"?>
<svg width="142px" height="142px" viewBox="0 0 142 142" version="1.1" xmlns="http://www.w3.org/2000/svg" xmlns:xlink="http://www.w3.org/1999/xlink">
    <!-- Generator: Sketch 3.6.1 (26313) - http://www.bohemiancoding.com/sketch -->
    <title>userpicEmpty</title>
    <desc>Created with Sketch.</desc>
    <defs></defs>
    <g id="-Request-to-Book" stroke="none" stroke-width="1" fill="none" fill-rule="evenodd">
        <g id="1.0-RequestToBookUnverifiedDebitCreditCard" transform="translate(-239.000000, -1664.000000)" fill="#A4AAB3">
            <g id="bookingUnverifiedDebit/CreditCard" transform="translate(239.000000, 128.000000)">
                <g id="AddProfilePhoto" transform="translate(0.000000, 1448.000000)">
                    <g id="YourPhoto" transform="translate(0.000000, 88.000000)">
                        <path d="M92,138.843094 C85.3633294,140.895068 78.3107,142 71,142 C63.6893,142 56.6366706,140.895068 50,138.843094 L50,102.496048 C50,100.557411 48.4331453,99 46.5,99 C44.5708039,99 43,100.565292 43,102.496048 L43,136.265478 C40.5949441,135.232307 38.2584316,134.070085 35.9991773,132.787527 L35.9991773,92.8283784 C35.9991773,85.1337368 42.2589493,78.8810987 49.9343519,78.8810987 L53.5000823,78.8810987 L65.1755788,96.7251507 C67.9466212,100.872147 74.0533788,100.872147 76.8244212,96.7251507 L88.4999177,78.8810987 L92.0656481,78.8810987 C99.743025,78.8810987 106.000823,85.1456051 106.000823,92.8283784 L106.000823,132.787527 C103.741568,134.070085 101.405056,135.232307 99,136.265478 L99,102.496048 C99,100.557411 97.4331453,99 95.5,99 C93.5708039,99 92,100.565292 92,102.496048 L92,138.843094 Z M113,128.250975 C130.585967,115.32794 142,94.4969153 142,71 C142,31.7877828 110.212217,0 71,0 C31.7877828,0 0,31.7877828 0,71 C0,94.4969153 11.4140335,115.32794 29,128.250975 L29,92.8283784 C29,81.2676244 38.4010107,71.8955904 49.9343519,71.8955904 L52.4891997,71.8955904 C46.672676,66.77539 42.9993419,59.2884443 42.9993419,50.9400548 C42.9993419,35.5092323 55.5356681,23 71,23 C86.4643319,23 99.0006581,35.5092323 99.0006581,50.9400548 C99.0006581,59.2884443 95.327324,66.77539 89.5108003,71.8955904 L92.0656481,71.8955904 C103.627618,71.8955904 113,81.3071855 113,92.8283784 L113,128.250975 Z M71,72 C59.4017769,72 50,62.5979469 50,50.9995044 C50,39.4020531 59.4017769,30 71,30 C82.5982231,30 92,39.4020531 92,50.9995044 C92,62.5979469 82.5982231,72 71,72 Z M71,92 L66.7018799,85.7480972 L60,76 C63.3872536,77.3690155 67.1013297,78.1281611 71,78.1281611 C74.8986703,78.1281611 78.6127464,77.3690155 82,76 L71,92 Z" id="userpicEmpty"></path>
                    </g>
                </g>
            </g>
        </g>
    </g>
</svg>