<?xml version="1.0" encoding="UTF-8" standalone="no"?>
<svg width="46px" height="114px" viewBox="0 0 46 114" version="1.1" xmlns="http://www.w3.org/2000/svg" xmlns:xlink="http://www.w3.org/1999/xlink">
    <!-- Generator: Sketch 3.8.3 (29802) - http://www.bohemiancoding.com/sketch -->
    <title>CoverLabel</title>
    <desc>Created with Sketch.</desc>
    <defs>
        <filter x="-50%" y="-50%" width="200%" height="200%" filterUnits="objectBoundingBox" id="filter-1">
            <feOffset dx="2" dy="1" in="SourceAlpha" result="shadowOffsetOuter1"></feOffset>
            <feGaussianBlur stdDeviation="1.5" in="shadowOffsetOuter1" result="shadowBlurOuter1"></feGaussianBlur>
            <feColorMatrix values="0 0 0 0 0   0 0 0 0 0   0 0 0 0 0  0 0 0 0.0536118659 0" type="matrix" in="shadowBlurOuter1" result="shadowMatrixOuter1"></feColorMatrix>
            <feMerge>
                <feMergeNode in="shadowMatrixOuter1"></feMergeNode>
                <feMergeNode in="SourceGraphic"></feMergeNode>
            </feMerge>
        </filter>
        <linearGradient x1="64.9505615%" y1="38.3391861%" x2="79.989624%" y2="29.474236%" id="linearGradient-2">
            <stop stop-color="#000000" stop-opacity="0.0240036232" offset="0%"></stop>
            <stop stop-color="#000000" offset="100%"></stop>
        </linearGradient>
    </defs>
    <g id="10.0-Become-a-Host" stroke="none" stroke-width="1" fill="none" fill-rule="evenodd">
        <g id="5.2-becomeAHostPicturesMove" transform="translate(-320.000000, -344.000000)">
            <g id="CoverLabel" filter="url(#filter-1)" transform="translate(321.000000, 346.000000)">
                <path d="M37.8776681,42.1223319 C39.0497996,40.9502004 40,41.3504982 40,42.9964905 L40,65.0035095 C40,66.6584255 39.0506834,68.9493166 37.8776681,70.1223319 L0,108 L0,80 L37.8776681,42.1223319 Z" id="bottom" fill="#32BA55"></path>
                <path d="M2.58411614,71.2441161 L3.84411614,71.2441161 L3.84411614,78.3241161 L2.58411614,78.3241161 L2.58411614,71.2441161 Z M5.42411614,71.2441161 L7.34411614,71.2441161 L9.23411614,76.2041161 L11.1441161,71.2441161 L13.0441161,71.2441161 L13.0441161,78.3241161 L11.8441161,78.3241161 L11.8441161,72.4441161 L11.8241161,72.4441161 L9.67411614,78.3241161 L8.79411614,78.3241161 L6.64411614,72.4441161 L6.62411614,72.4441161 L6.62411614,78.3241161 L5.42411614,78.3241161 L5.42411614,71.2441161 Z M16.9441161,71.2441161 L18.0341161,71.2441161 L21.0841161,78.3241161 L19.6441161,78.3241161 L18.9841161,76.7041161 L15.9141161,76.7041161 L15.2741161,78.3241161 L13.8641161,78.3241161 L16.9441161,71.2441161 Z M18.5441161,75.6241161 L17.4541161,72.7441161 L16.3441161,75.6241161 L18.5441161,75.6241161 Z M28.1641161,77.8041161 C27.2907784,78.2707851 26.3141215,78.5041161 25.2341161,78.5041161 C24.6874467,78.5041161 24.1857851,78.4157837 23.7291161,78.2391161 C23.2724472,78.0624486 22.8791178,77.8124511 22.5491161,77.4891161 C22.2191145,77.1657812 21.9607837,76.7774517 21.7741161,76.3241161 C21.5874485,75.8707805 21.4941161,75.3674522 21.4941161,74.8141161 C21.4941161,74.2474466 21.5874485,73.7324518 21.7741161,73.2691161 C21.9607837,72.8057805 22.2191145,72.4107844 22.5491161,72.0841161 C22.8791178,71.7574478 23.2724472,71.5057837 23.7291161,71.3291161 C24.1857851,71.1524486 24.6874467,71.0641161 25.2341161,71.0641161 C25.7741188,71.0641161 26.2807804,71.1291155 26.7541161,71.2591161 C27.2274518,71.3891168 27.6507809,71.6207811 28.0241161,71.9541161 L27.0941161,72.8941161 C26.8674483,72.674115 26.5924511,72.5041167 26.2691161,72.3841161 C25.9457812,72.2641155 25.6041179,72.2041161 25.2441161,72.2041161 C24.8774476,72.2041161 24.5457843,72.2691155 24.2491161,72.3991161 C23.952448,72.5291168 23.6974505,72.709115 23.4841161,72.9391161 C23.2707817,73.1691173 23.1057834,73.4374479 22.9891161,73.7441161 C22.8724489,74.0507843 22.8141161,74.380781 22.8141161,74.7341161 C22.8141161,75.114118 22.8724489,75.4641145 22.9891161,75.7841161 C23.1057834,76.1041177 23.2707817,76.3807816 23.4841161,76.6141161 C23.6974505,76.8474506 23.952448,77.0307821 24.2491161,77.1641161 C24.5457843,77.2974501 24.8774476,77.3641161 25.2441161,77.3641161 C25.5641177,77.3641161 25.8657814,77.3341164 26.1491161,77.2741161 C26.4324509,77.2141158 26.684115,77.1207834 26.9041161,76.9941161 L26.9041161,75.3241161 L25.4541161,75.3241161 L25.4541161,74.1841161 L28.1641161,74.1841161 L28.1641161,77.8041161 Z M29.6541161,71.2441161 L34.3441161,71.2441161 L34.3441161,72.3841161 L30.9141161,72.3841161 L30.9141161,74.1241161 L34.1641161,74.1241161 L34.1641161,75.2641161 L30.9141161,75.2641161 L30.9141161,77.1841161 L34.5241161,77.1841161 L34.5241161,78.3241161 L29.6541161,78.3241161 L29.6541161,71.2441161 Z" id="IMAGE" fill="#FFFFFF" transform="translate(18.779116, 74.784116) rotate(-45.000000) translate(-18.779116, -74.784116) "></path>
                <path d="M37.8776681,42.1223319 C39.0497996,40.9502004 40,41.3504982 40,42.9964905 L40,65.0035095 C40,66.6584255 39.0506834,68.9493166 37.8776681,70.1223319 L0,108 L0,80 L37.8776681,42.1223319 Z" id="shadow" fill="url(#linearGradient-2)" opacity="0.3"></path>
                <path d="M37.9293887,65.9285106 C37.9121984,65.9119045 37.8949574,65.8949574 37.8776681,65.8776681 L0,28 L0,-4.26325641e-14 L37.8776681,37.8776681 C39.0506834,39.0506834 40,41.3415745 40,42.9964905 L40,65.0035095 C40,65.0060423 39.9999978,65.0085722 39.9999933,65.0110991 C39.9957714,68.5031714 38,70 38,70 C38,70 40,68 38,66 C37.9757308,65.9757309 37.9521979,65.9519034 37.9293887,65.9285106 Z" id="top" fill="#32BA55"></path>
                <path d="M7.47411614,31.9041161 C7.21411484,31.6241147 6.96245069,31.4374499 6.71911614,31.3441161 C6.47578159,31.2507823 6.23078404,31.2041161 5.98411614,31.2041161 C5.61744764,31.2041161 5.28578429,31.2691155 4.98911614,31.3991161 C4.69244799,31.5291168 4.43745054,31.709115 4.22411614,31.9391161 C4.01078174,32.1691173 3.84578339,32.4374479 3.72911614,32.7441161 C3.61244889,33.0507843 3.55411614,33.380781 3.55411614,33.7341161 C3.55411614,34.114118 3.61244889,34.4641145 3.72911614,34.7841161 C3.84578339,35.1041177 4.01078174,35.3807816 4.22411614,35.6141161 C4.43745054,35.8474506 4.69244799,36.0307821 4.98911614,36.1641161 C5.28578429,36.2974501 5.61744764,36.3641161 5.98411614,36.3641161 C6.27078424,36.3641161 6.54911479,36.2957835 6.81911614,36.1591161 C7.08911749,36.0224488 7.34078164,35.8041176 7.57411614,35.5041161 L8.61411614,36.2441161 C8.29411454,36.6841183 7.90411844,37.0041151 7.44411614,37.2041161 C6.98411384,37.4041171 6.49411874,37.5041161 5.97411614,37.5041161 C5.42744674,37.5041161 4.92578509,37.4157837 4.46911614,37.2391161 C4.01244719,37.0624486 3.61911779,36.8124511 3.28911614,36.4891161 C2.95911449,36.1657812 2.70078374,35.7774517 2.51411614,35.3241161 C2.32744854,34.8707805 2.23411614,34.3674522 2.23411614,33.8141161 C2.23411614,33.2474466 2.32744854,32.7324518 2.51411614,32.2691161 C2.70078374,31.8057805 2.95911449,31.4107844 3.28911614,31.0841161 C3.61911779,30.7574478 4.01244719,30.5057837 4.46911614,30.3291161 C4.92578509,30.1524486 5.42744674,30.0641161 5.97411614,30.0641161 C6.45411854,30.0641161 6.89911409,30.1491153 7.30911614,30.3191161 C7.71911819,30.489117 8.10078104,30.7774474 8.45411614,31.1841161 L7.47411614,31.9041161 Z M9.08411614,33.8141161 C9.08411614,33.2474466 9.17744854,32.7324518 9.36411614,32.2691161 C9.55078374,31.8057805 9.80911449,31.4107844 10.1391161,31.0841161 C10.4691178,30.7574478 10.8624472,30.5057837 11.3191161,30.3291161 C11.7757851,30.1524486 12.2774467,30.0641161 12.8241161,30.0641161 C13.3774522,30.0574494 13.8841138,30.1391153 14.3441161,30.3091161 C14.8041184,30.479117 15.2007811,30.7274478 15.5341161,31.0541161 C15.8674511,31.3807844 16.1274485,31.7741138 16.3141161,32.2341161 C16.5007837,32.6941184 16.5941161,33.2074466 16.5941161,33.7741161 C16.5941161,34.3274522 16.5007837,34.8307805 16.3141161,35.2841161 C16.1274485,35.7374517 15.8674511,36.1274478 15.5341161,36.4541161 C15.2007811,36.7807844 14.8041184,37.0357819 14.3441161,37.2191161 C13.8841138,37.4024504 13.3774522,37.4974494 12.8241161,37.5041161 C12.2774467,37.5041161 11.7757851,37.4157837 11.3191161,37.2391161 C10.8624472,37.0624486 10.4691178,36.8124511 10.1391161,36.4891161 C9.80911449,36.1657812 9.55078374,35.7774517 9.36411614,35.3241161 C9.17744854,34.8707805 9.08411614,34.3674522 9.08411614,33.8141161 L9.08411614,33.8141161 Z M10.4041161,33.7341161 C10.4041161,34.114118 10.4624489,34.4641145 10.5791161,34.7841161 C10.6957834,35.1041177 10.8607817,35.3807816 11.0741161,35.6141161 C11.2874505,35.8474506 11.542448,36.0307821 11.8391161,36.1641161 C12.1357843,36.2974501 12.4674476,36.3641161 12.8341161,36.3641161 C13.2007846,36.3641161 13.5341146,36.2974501 13.8341161,36.1641161 C14.1341176,36.0307821 14.3907817,35.8474506 14.6041161,35.6141161 C14.8174505,35.3807816 14.9824489,35.1041177 15.0991161,34.7841161 C15.2157834,34.4641145 15.2741161,34.114118 15.2741161,33.7341161 C15.2741161,33.380781 15.2157834,33.0507843 15.0991161,32.7441161 C14.9824489,32.4374479 14.8174505,32.1691173 14.6041161,31.9391161 C14.3907817,31.709115 14.1341176,31.5291168 13.8341161,31.3991161 C13.5341146,31.2691155 13.2007846,31.2041161 12.8341161,31.2041161 C12.4674476,31.2041161 12.1357843,31.2691155 11.8391161,31.3991161 C11.542448,31.5291168 11.2874505,31.709115 11.0741161,31.9391161 C10.8607817,32.1691173 10.6957834,32.4374479 10.5791161,32.7441161 C10.4624489,33.0507843 10.4041161,33.380781 10.4041161,33.7341161 L10.4041161,33.7341161 Z M16.9741161,30.2441161 L18.4241161,30.2441161 L20.3541161,35.5941161 L22.3441161,30.2441161 L23.7041161,30.2441161 L20.8441161,37.3241161 L19.7541161,37.3241161 L16.9741161,30.2441161 Z M24.4641161,30.2441161 L29.1541161,30.2441161 L29.1541161,31.3841161 L25.7241161,31.3841161 L25.7241161,33.1241161 L28.9741161,33.1241161 L28.9741161,34.2641161 L25.7241161,34.2641161 L25.7241161,36.1841161 L29.3341161,36.1841161 L29.3341161,37.3241161 L24.4641161,37.3241161 L24.4641161,30.2441161 Z M30.5741161,30.2441161 L33.0341161,30.2441161 C33.3741178,30.2441161 33.7024479,30.2757825 34.0191161,30.3391161 C34.3357844,30.4024498 34.6174482,30.510782 34.8641161,30.6641161 C35.110784,30.8174502 35.3074487,31.0241148 35.4541161,31.2841161 C35.6007835,31.5441174 35.6741161,31.8741141 35.6741161,32.2741161 C35.6741161,32.787452 35.5324509,33.2174477 35.2491161,33.5641161 C34.9657814,33.9107845 34.5607854,34.1207824 34.0341161,34.1941161 L35.9141161,37.3241161 L34.3941161,37.3241161 L32.7541161,34.3241161 L31.8341161,34.3241161 L31.8341161,37.3241161 L30.5741161,37.3241161 L30.5741161,30.2441161 Z M32.8141161,33.2441161 C32.994117,33.2441161 33.1741152,33.2357829 33.3541161,33.2191161 C33.534117,33.2024494 33.6991154,33.1624498 33.8491161,33.0991161 C33.9991169,33.0357825 34.1207823,32.9391168 34.2141161,32.8091161 C34.3074499,32.6791155 34.3541161,32.4974506 34.3541161,32.2641161 C34.3541161,32.0574484 34.3107832,31.8907834 34.2241161,31.7641161 C34.137449,31.6374488 34.0241168,31.5424498 33.8841161,31.4791161 C33.7441154,31.4157825 33.589117,31.3741162 33.4191161,31.3541161 C33.2491153,31.334116 33.0841169,31.3241161 32.9241161,31.3241161 L31.8341161,31.3241161 L31.8341161,33.2441161 L32.8141161,33.2441161 Z" id="COVER-Copy" fill="#FFFFFF" transform="translate(19.159116, 33.783927) rotate(-315.000000) translate(-19.159116, -33.783927) "></path>
            </g>
        </g>
    </g>
</svg>